<svg version="1.1" viewBox="0.0 0.0 960.0 720.0" fill="none" stroke="none" stroke-linecap="square" stroke-miterlimit="10" xmlns:xlink="http://www.w3.org/1999/xlink" xmlns="http://www.w3.org/2000/svg"><clipPath id="p.0"><path d="m0 0l960.0 0l0 720.0l-960.0 0l0 -720.0z" clip-rule="nonzero"/></clipPath><g clip-path="url(#p.0)"><path fill="#000000" fill-opacity="0.0" d="m0 0l960.0 0l0 720.0l-960.0 0z" fill-rule="evenodd"/><path fill="#000000" fill-opacity="0.0" d="m143.24672 81.9895l256.34644 0l0 304.40945l-256.34644 0z" fill-rule="evenodd"/><path fill="#000000" d="m172.0436 346.9895l0 -190.875l38.015625 0l45.171875 135.14062q6.2499847 18.890625 9.124985 28.265625q3.25 -10.421875 10.15625 -30.609375l45.703125 -132.79688l33.96875 0l0 190.875l-24.34375 0l0 -159.76562l-55.46875 159.76562l-22.781235 0l-55.203125 -162.5l0 162.5l-24.34375 0z" fill-rule="nonzero"/><path fill="#000000" fill-opacity="0.0" d="m298.7454 81.9895l235.59055 0l0 312.8819l-235.59055 0z" fill-rule="evenodd"/><path fill="#000000" d="m328.83914 346.9895l0 -190.875l138.01562 0l0 22.515625l-112.75 0l0 58.46875l105.59375 0l0 22.390625l-105.59375 0l0 64.96875l117.171875 0l0 22.53125l-142.4375 0z" fill-rule="nonzero"/></g></svg>